<svg width="51" height="51" viewBox="0 0 51 51" fill="none" xmlns="http://www.w3.org/2000/svg">
<path d="M49.6681 38.9206H41.7143C39.671 38.9206 38.014 37.5159 38.014 35.7828C38.014 34.0497 39.671 32.645 41.7143 32.645H49.6681C50.4039 32.645 51 33.1509 51 33.7745V37.7912C51 38.4152 50.4039 38.9206 49.6681 38.9206Z" fill="#233C8B"/>
<path d="M0 46.3577V47.047C0 49.23 2.08685 51 4.66153 51H44.618C47.1922 51 49.2795 49.23 49.2795 47.047V46.3577H0Z" fill="#233C8B"/>
<path d="M30.524 3.58669C28.2298 7.54011 24.5852 10.8326 21.2842 13.2522C25.3904 12.0241 30.4517 10.2825 35.2386 8.01673L30.524 3.58669ZM23.0417 15.436H40.1223V8.49903C34.4731 11.5889 28.1288 13.8827 23.0417 15.436ZM13.0958 17.977C12.4916 17.9774 11.931 17.666 11.7017 17.1711C11.4283 16.5817 11.7088 15.9114 12.3595 15.6C12.4825 15.5407 24.813 9.54158 28.6751 0.823606C28.8589 0.408696 29.285 0.104619 29.7982 0.0222052C30.3124 -0.0602084 30.8395 0.0900038 31.1899 0.419252L37.8722 6.69892C38.8556 6.17765 39.8159 5.63323 40.7423 5.06486C41.1981 4.78474 41.8008 4.74536 42.302 4.96296C42.8033 5.17975 43.1188 5.61699 43.1188 6.09442V16.7063C43.1188 17.4078 42.4481 17.977 41.6203 17.977H13.0958Z" fill="#233C8B"/>
<path d="M25.7363 39.4194C25.7315 39.4202 25.7282 39.4239 25.7282 39.4284V39.9293C25.7282 40.477 25.2045 40.9211 24.5586 40.9211C23.9128 40.9211 23.3891 40.477 23.3891 39.9293V39.4288C23.3891 39.4243 23.3857 39.4206 23.3809 39.4198C21.5109 39.0573 20.0144 37.8532 19.4825 36.3031C19.2675 35.6771 19.8444 35.0548 20.6133 35.0548C21.1255 35.0548 21.5861 35.3349 21.7292 35.7518C22.0859 36.7907 23.2191 37.5523 24.5581 37.5523C26.2323 37.5523 27.5843 36.3612 27.4991 34.9261C27.4206 33.5985 26.0695 32.5718 24.5021 32.5568C21.9006 32.5316 19.7932 30.7291 19.7932 28.5169C19.7932 26.634 21.3223 25.0523 23.3814 24.6065C23.3857 24.6053 23.3891 24.6016 23.3891 24.5976V24.082C23.3891 23.5343 23.9128 23.0906 24.5586 23.0906C25.2045 23.0906 25.7282 23.5343 25.7282 24.082V24.598C25.7282 24.602 25.7315 24.6057 25.7363 24.6069C27.3018 24.9467 28.5604 25.943 29.0732 27.2291C29.326 27.862 28.7558 28.5169 27.9678 28.5169H27.8787C27.4067 28.5169 27.0088 28.2473 26.8595 27.8673C26.5382 27.0505 25.6277 26.4602 24.5581 26.4602C23.1463 26.4602 22.0122 27.4881 22.1424 28.7077C22.2563 29.7734 23.3666 30.5598 24.6285 30.574C27.5101 30.6065 29.842 32.6039 29.842 35.0548C29.842 37.1817 28.0836 38.9635 25.7363 39.4194ZM41.8705 30.3888H47.9477C48.683 30.3888 49.2791 29.8834 49.2791 29.2598V24.5233C49.2791 22.3399 47.1922 20.5703 44.6175 20.5703H5.04501C3.83713 20.5703 2.7839 19.7806 2.74751 18.7572C2.71017 17.6976 3.71171 16.8288 4.95261 16.8288H8.94199C8.9123 15.986 9.24024 15.1561 9.86022 14.4993H4.66153C2.08685 14.4993 0 16.2693 0 18.4523V42.312C0 42.9356 0.596036 43.4415 1.33139 43.4415H47.9477C48.683 43.4415 49.2791 42.9356 49.2791 42.312C49.2791 41.688 48.683 41.1826 47.9477 41.1826H41.714C38.1238 41.1826 35.2179 38.6481 35.3548 35.5777C35.485 32.657 38.424 30.3888 41.8705 30.3888Z" fill="#233C8B"/>
</svg>
