<svg width="51" height="51" viewBox="0 0 51 51" fill="none" xmlns="http://www.w3.org/2000/svg">
<path d="M33.0501 13.4321V16.7915C33.0501 17.8253 32.2441 18.7519 31.1696 18.8061C30.0233 18.864 29.075 17.988 29.075 16.8995V13.4321C29.075 13.115 28.927 12.8156 28.6722 12.6135C27.6807 11.8286 27.1137 10.5672 27.3596 9.19128C27.6178 7.74715 28.8103 6.56834 30.3077 6.28863C32.7153 5.83888 34.8228 7.59805 34.8228 9.82997C34.8228 10.9566 34.2845 11.96 33.443 12.6217C33.1908 12.8201 33.0501 13.1191 33.0501 13.4321ZM41.2568 2.95307C36.6802 3.63448 33.3233 1.47607 31.8657 0.284946C31.4014 -0.094982 30.7241 -0.094982 30.2593 0.284946C28.8022 1.47607 25.4453 3.63448 20.8682 2.95307C20.1067 2.83971 19.4282 3.42336 19.4525 4.1635C19.5453 6.96511 19.9767 13.0296 21.9457 16.8806C23.8167 20.5415 27.6439 23.3451 29.6941 24.6566C30.5244 25.1881 31.6006 25.1881 32.4314 24.6566C34.4816 23.3451 38.3083 20.5415 40.1798 16.8806C42.1488 13.0296 42.5802 6.96511 42.673 4.1635C42.6969 3.42336 42.0188 2.83971 41.2568 2.95307Z" fill="#233C8B"/>
<path d="M33.0501 13.4321V16.7915C33.0501 17.8253 32.2441 18.7519 31.1696 18.8061C30.0233 18.864 29.075 17.988 29.075 16.8995V13.4321C29.075 13.115 28.927 12.8156 28.6722 12.6135C27.6807 11.8286 27.1137 10.5672 27.3596 9.19128C27.6178 7.74715 28.8103 6.56834 30.3077 6.28863C32.7153 5.83888 34.8228 7.59805 34.8228 9.82997C34.8228 10.9566 34.2845 11.96 33.443 12.6217C33.1908 12.8201 33.0501 13.1191 33.0501 13.4321ZM41.2568 2.95307C36.6802 3.63448 33.3233 1.47607 31.8657 0.284946C31.4014 -0.094982 30.7241 -0.094982 30.2593 0.284946C28.8022 1.47607 25.4453 3.63448 20.8682 2.95307C20.1067 2.83971 19.4282 3.42336 19.4525 4.1635C19.5449 6.96511 19.9767 13.0296 21.9457 16.8806C23.8167 20.5415 27.6439 23.3451 29.6941 24.6566C30.5244 25.1881 31.6006 25.1881 32.4314 24.6566C34.4816 23.3451 38.3083 20.5415 40.1798 16.8806C42.1488 13.0296 42.5802 6.96511 42.673 4.1635C42.6969 3.42336 42.0188 2.83971 41.2568 2.95307Z" fill="#233C8B"/>
<path d="M46.1001 37.611C45.7965 37.8994 45.38 38.0793 44.9183 38.0793H40.0769C39.1568 38.0793 38.4115 37.363 38.4115 36.4758C38.4115 36.0326 38.5984 35.6354 38.8985 35.3442C39.2021 35.0559 39.6151 34.876 40.0769 34.876H44.9183C45.8418 34.876 46.5875 35.5923 46.5875 36.4758C46.5875 36.9194 46.4002 37.3194 46.1001 37.611ZM34.657 37.611C34.3569 37.8994 33.9409 38.0793 33.4791 38.0793H28.6373C27.7176 38.0793 26.9685 37.363 26.9685 36.4758C26.9685 36.0326 27.1558 35.6354 27.4589 35.3442C27.7591 35.0559 28.1755 34.876 28.6373 34.876H33.4791C34.3992 34.876 35.1479 35.5923 35.1479 36.4758C35.1479 36.9194 34.9606 37.3194 34.657 37.611ZM23.5402 37.611C23.2371 37.8994 22.8241 38.0793 22.3623 38.0793H17.5205C16.5974 38.0793 15.8517 37.363 15.8517 36.4758C15.8517 36.0326 16.039 35.6354 16.3396 35.3442C16.6423 35.0559 17.0591 34.876 17.5205 34.876H22.3623C23.2824 34.876 24.0281 35.5923 24.0281 36.4758C24.0281 36.9194 23.8404 37.3194 23.5402 37.611ZM13.2341 29.0341C13.2341 29.9209 12.4884 30.6372 11.5649 30.6372H6.07789C5.15777 30.6372 4.40909 29.9209 4.40909 29.0341V23.7632C4.40909 22.8793 5.15777 22.1634 6.07789 22.1634H11.5649C12.4884 22.1634 13.2341 22.8793 13.2341 23.7632V29.0341ZM12.1011 37.611C11.7975 37.8994 11.3815 38.0793 10.9197 38.0793H6.07789C5.15777 38.0793 4.40909 37.363 4.40909 36.4758C4.40909 36.0326 4.59637 35.6354 4.89994 35.3442C5.20009 35.0559 5.61954 34.876 6.07789 34.876H10.9197C11.8428 34.876 12.5885 35.5923 12.5885 36.4758C12.5885 36.9194 12.4016 37.3194 12.1011 37.611ZM46.481 17.9242H44.8785C44.7353 18.2536 44.586 18.5768 44.4266 18.889C42.0741 23.49 37.5448 26.8502 35.0538 28.4439C33.8421 29.2194 32.4529 29.6071 31.0642 29.6071C29.6746 29.6071 28.2854 29.2194 27.0732 28.4435C24.5831 26.8502 20.0534 23.49 17.7014 18.8894C17.5419 18.5773 17.3922 18.254 17.249 17.9242H4.51898C2.02368 17.9242 0 19.8686 0 22.2656V46.6587C0 49.0557 2.02368 51.0001 4.51898 51.0001H46.481C48.9763 51.0001 51 49.0557 51 46.6587V22.2656C51 19.8686 48.9763 17.9242 46.481 17.9242Z" fill="#233C8B"/>
</svg>
