<svg width="51" height="51" viewBox="0 0 51 51" fill="none" xmlns="http://www.w3.org/2000/svg">
<path d="M36.0461 2.58704C40.1332 3.30873 43.3614 6.97382 43.9975 11.6136C44.0553 12.0356 43.5634 12.2456 43.3593 11.8869C41.3856 8.4106 38.8676 5.55168 35.8054 3.31109C35.4894 3.07981 35.6744 2.52143 36.0461 2.58704ZM38.0335 17.9663C37.7371 18.6559 37.2851 19.2544 36.7284 19.6928C36.4078 19.9477 36.0515 20.1446 35.6682 20.2805V20.4131C35.6682 21.1372 35.1505 21.7286 34.5098 21.7286C33.8749 21.7286 33.3573 21.1372 33.3573 20.4131V20.2805C33.0038 20.1582 32.6716 19.9817 32.3689 19.7537C31.8093 19.3393 31.3453 18.7649 31.0368 18.0852C30.7574 17.4692 30.52 16.766 30.932 16.1377C31.1536 15.8045 31.4921 15.611 31.8629 15.611C32.3631 15.611 32.8259 15.9947 32.971 16.5389C33.1735 17.2989 33.7976 17.8539 34.5098 17.8539C35.4137 17.8539 36.1634 16.968 36.1147 15.9404C36.0873 15.3693 35.8154 14.8496 35.3975 14.5334C34.7505 14.043 33.8712 14.2389 33.1623 13.908C31.8434 13.293 30.9411 11.784 30.9411 10.1561C30.9411 8.87693 31.4912 7.64643 32.3993 6.88981C32.6866 6.65192 33.0068 6.4584 33.3573 6.32246V6.16906C33.3573 5.44548 33.8749 4.85737 34.5098 4.85737C35.1505 4.85737 35.6682 5.44548 35.6682 6.16906V6.32577C36.0428 6.47161 36.39 6.6859 36.6956 6.95447C37.2461 7.43686 37.6656 8.09294 37.8926 8.86466C37.8959 8.87127 37.8988 8.88118 37.8988 8.88496C37.8988 9.14645 37.9807 9.35885 37.9117 9.62978C37.797 10.0801 37.4581 10.443 37.0544 10.5431C36.4927 10.7031 35.8761 10.3406 35.7014 9.70388C35.6594 9.55095 35.5904 9.41502 35.5098 9.28946C35.2761 8.94632 34.911 8.72872 34.5098 8.72872C33.7838 8.72872 33.1914 9.47024 33.2583 10.2887C33.3124 10.9311 33.7735 11.4508 34.3572 11.556C35.1085 11.556 35.8769 11.7755 36.5218 12.2192C37.2431 12.7153 37.8211 13.4695 38.1412 14.3635C38.3308 14.8917 38.424 15.4618 38.4231 16.0325C38.4215 16.6994 38.2909 17.3664 38.0335 17.9663ZM34.5663 0C28.0989 0 22.8567 5.95052 22.8567 13.293C22.8567 20.6354 28.0989 26.586 34.5663 26.586C41.0342 26.586 46.2764 20.6354 46.2764 13.293C46.2764 5.95052 41.0342 0 34.5663 0Z" fill="#233C8B"/>
<path d="M50.7549 32.582C50.4085 31.8787 49.7587 31.4662 49.0793 31.4662C48.8913 31.4662 48.703 31.4955 48.5196 31.563L38.5051 35.0275C38.7446 35.6293 38.8515 36.3085 38.7957 37.0122C38.6419 39.0305 37.1804 40.6028 35.398 40.6655C34.0176 40.7189 26.7514 41.0294 24.3411 41.1314H24.3107C23.8921 41.1314 23.5461 40.7628 23.5291 40.2823C23.5158 39.7923 23.8492 39.3798 24.2812 39.3652C26.6915 39.2585 33.9531 38.9531 35.3464 38.8993C36.3426 38.8606 37.1547 37.9822 37.2445 36.8569C37.2486 36.789 37.2528 36.721 37.2528 36.6578C37.2528 36.2599 37.1588 35.8813 36.9921 35.5519C36.7185 35.0034 36.2445 34.5909 35.6628 34.4601C34.1585 34.1203 30.3159 33.3925 27.7347 32.9072C26.2558 32.6306 24.8625 31.9462 23.6571 30.9371C18.4362 26.5555 13.4655 28.8995 11.4332 30.2282V25.9348C11.4332 24.997 10.7633 24.2366 9.93718 24.2366H1.49598C0.669824 24.2366 0 24.997 0 25.9348C0 26.8727 0.669824 27.6331 1.49598 27.6331H8.4412V47.604H1.49598C0.669824 47.604 0 48.3643 0 49.3022C0 50.2401 0.669824 51 1.49598 51H9.93718C10.7633 51 11.4332 50.2401 11.4332 49.3022V44.7597C12.0631 44.7111 12.6976 44.7748 13.3137 44.9499L22.9474 47.7059C25.1743 48.3417 27.5293 48.0651 29.5895 46.9148L49.9254 35.6047C50.9129 35.0515 51.2933 33.6738 50.7549 32.582Z" fill="#233C8B"/>
</svg>
