<svg width="23" height="36" viewBox="0 0 23 36" fill="none" xmlns="http://www.w3.org/2000/svg">
<path d="M15.5502 7.85442H22.0688C22.5188 7.85442 22.8835 7.54712 22.8835 7.16817V1.67795C22.8835 1.29891 22.5187 0.991699 22.0688 0.991699H15.5502C9.70006 0.991699 4.95765 4.98598 4.95765 9.91324V13.3446H1.69833C1.2483 13.3446 0.883545 13.6519 0.883545 14.0309V19.5211C0.883545 19.9001 1.2484 20.2074 1.69833 20.2074H4.95756V35.9917H13.1057V20.2074H22.0687C22.5187 20.2074 22.8834 19.9001 22.8834 19.5211V14.0309C22.8834 13.6519 22.5186 13.3446 22.0687 13.3446H13.1057V9.91324C13.1058 8.77622 14.2001 7.85442 15.5502 7.85442Z" fill="#233C8B"/>
</svg>
