<svg width="36" height="36" viewBox="0 0 36 36" fill="none" xmlns="http://www.w3.org/2000/svg">
<path d="M8.37378 35.9909H12.5506L5.96002 31.767L0.542725 28.6016C0.779308 32.716 4.20106 35.9909 8.37378 35.9909Z" fill="#233C8B"/>
<path d="M23.457 33.5778L18.74 32.3711H8.37142C6.04236 32.3711 4.14744 30.4762 4.14744 28.1473V25.8318L2.33715 23.8892L0.526855 24.2092V28.1472C0.526855 28.3001 0.531777 28.4517 0.54039 28.6023L12.5482 35.9914H26.8189L23.457 33.5778Z" fill="#233C8B"/>
<path d="M30.716 31.0806C29.9474 31.8759 28.8709 32.3719 27.68 32.3719H18.739L26.8179 35.992H27.68C30.4964 35.992 32.9706 34.5 34.3544 32.2652L32.5072 31.1652L30.716 31.0806Z" fill="#233C8B"/>
<path d="M31.9058 23.2781V28.147C31.9058 29.2853 31.4523 30.3191 30.7178 31.0795L34.3562 32.2643C35.0976 31.0667 35.5264 29.6561 35.5264 28.147V23.8538L33.6537 22.8018L31.9058 23.2781Z" fill="#233C8B"/>
<path d="M35.5251 11.1905L33.5973 10.7314L31.9045 11.7449V23.2775L35.5251 23.8532V11.1905Z" fill="#233C8B"/>
<path d="M35.5269 8.83594C35.5269 4.89643 32.6075 1.62632 28.8186 1.07422L24.0723 3.04913L21.6672 4.61207H27.6823C30.0114 4.61207 31.9063 6.50694 31.9063 8.83594V11.7438L35.5269 11.1895V8.83594Z" fill="#233C8B"/>
<path d="M22.2473 0.991699L17.7575 2.67572L14.2163 4.61225H21.6673L28.8186 1.07427C28.4475 1.0202 28.0682 0.991699 27.6823 0.991699H22.2473Z" fill="#233C8B"/>
<path d="M18.0263 28.7507C19.2812 28.7507 20.484 28.5237 21.5963 28.1093L15.7163 25.4397L9.48364 24.1641C11.3237 26.9266 14.4658 28.7507 18.0263 28.7507Z" fill="#233C8B"/>
<path d="M23.027 21.8666C21.9413 23.4709 20.1048 24.5274 18.0265 24.5274C15.2735 24.5274 12.947 22.6734 12.2252 20.1486L10.6064 19.1367L7.81421 19.447C7.97505 21.1798 8.56709 22.7893 9.48383 24.1656L21.5965 28.1108C24.2148 27.1356 26.3294 25.1192 27.4382 22.5683L25.2676 21.4686L23.027 21.8666Z" fill="#233C8B"/>
<path d="M11.9913 18.4919C11.9913 16.9962 12.5394 15.627 13.4437 14.5716L10.8695 14.2114L8.25486 15.3662C7.93871 16.3521 7.76733 17.4023 7.76733 18.4919C7.76733 18.814 7.78401 19.1321 7.8132 19.4466L12.2243 20.1482C12.0737 19.6215 11.9913 19.0663 11.9913 18.4919Z" fill="#233C8B"/>
<path d="M28.2805 18.4922C28.2805 16.2954 27.5861 14.2579 26.4056 12.587L23.8493 12.2241L21.2231 13.3805C22.9234 14.449 24.0565 16.3402 24.0565 18.4922C24.0565 19.7411 23.6751 20.9025 23.0228 21.8662L27.4339 22.5676C27.9774 21.3177 28.2805 19.94 28.2805 18.4922Z" fill="#233C8B"/>
<path d="M18.0244 12.4581C19.1997 12.4581 20.2967 12.797 21.2253 13.3805L26.4078 12.587C24.5487 9.95589 21.484 8.23438 18.0244 8.23438C13.4575 8.23438 9.57863 11.2343 8.25366 15.3666L13.4425 14.572C14.55 13.2795 16.1926 12.4581 18.0244 12.4581Z" fill="#233C8B"/>
<path d="M27.6779 11.2531C29.0088 11.2531 30.0915 10.1701 30.0915 8.83894C30.0915 7.50778 29.0088 6.4248 27.6779 6.4248C26.3469 6.4248 25.2642 7.50778 25.2642 8.83894C25.2642 10.1701 26.3469 11.2531 27.6779 11.2531Z" fill="#233C8B"/>
<path d="M4.14744 22.4268L2.40462 21.5573L0.526855 21.2476V24.2087L4.14744 25.8316V22.4268Z" fill="#233C8B"/>
<path d="M0.526855 18.2885V21.2483L4.14744 22.4272V18.8643L2.26626 18.188L0.526855 18.2885Z" fill="#233C8B"/>
<path d="M4.14744 15.9958L2.28697 15.979L0.526855 16.5502V18.2879L4.14744 18.8636V15.9958Z" fill="#233C8B"/>
<path d="M4.14744 13.2798L2.22969 13.4743L0.526855 15.0712V16.5498L4.14744 15.9953V13.2798Z" fill="#233C8B"/>
<path d="M0.526855 15.0712L4.14744 13.28V9.15186L2.02387 9.35493L0.526855 10.784V15.0712Z" fill="#233C8B"/>
<path d="M14.5459 0.991699L6.28466 4.1689L0.623376 7.6172C0.561171 8.01455 0.528564 8.42153 0.528564 8.83603V10.7829L4.14918 9.15074V8.83597C4.14918 6.50698 6.04412 4.61211 8.37319 4.61211H14.2169L22.2479 0.991699H14.5459Z" fill="#233C8B"/>
<path d="M8.36677 0.991699C4.45577 0.991699 1.2042 3.86868 0.616943 7.61735L14.5395 0.991699H8.36677Z" fill="#233C8B"/>
</svg>
