<svg width="36" height="36" viewBox="0 0 36 36" fill="none" xmlns="http://www.w3.org/2000/svg">
<path d="M7.66934 10.8828H1.00316C0.542939 10.8828 0.169922 11.256 0.169922 11.7162V34.2175C0.169922 34.6778 0.543037 35.0509 1.00316 35.0509H7.66934C8.12956 35.0509 8.50257 34.6777 8.50257 34.2175V11.7162C8.50257 11.256 8.12956 10.8828 7.66934 10.8828Z" fill="#233C8B"/>
<path d="M32.5218 13.0357C30.9223 11.6674 28.8504 10.8828 26.8374 10.8828C23.5906 10.8828 21.507 11.9395 20.1712 13.2594V11.7162C20.1712 11.2559 19.7981 10.8828 19.338 10.8828H12.6719C12.2116 10.8828 11.8386 11.256 11.8386 11.7162V34.2175C11.8386 34.6778 12.2117 35.0509 12.6719 35.0509H19.338C19.7982 35.0509 20.1712 34.6777 20.1712 34.2175V23.3836C20.1712 21.3245 21.9013 20.0501 23.5043 20.0501C25.4356 20.0501 26.8373 21.452 26.8373 23.3836V34.2175C26.8373 34.6778 27.2104 35.0509 27.6705 35.0509H34.3367C34.7969 35.0509 35.1699 34.6777 35.1699 34.2175V18.3833C35.17 16.3955 34.2296 14.4964 32.5218 13.0357Z" fill="#233C8B"/>
<path d="M28.504 34.2175V23.3841C28.504 21.4526 27.1022 20.0508 25.171 20.0508C24.9072 20.0508 24.6401 20.086 24.3777 20.1527C25.8441 20.5077 26.8374 21.7581 26.8374 23.3841V34.2174C26.8374 34.6776 27.2105 35.0507 27.6706 35.0507H29.3372C28.8771 35.0508 28.504 34.6776 28.504 34.2175Z" fill="#233C8B"/>
<path d="M4.33698 0.0507812C2.03963 0.0507812 0.170654 1.91996 0.170654 4.21757C0.170654 6.51517 2.03963 8.38435 4.33698 8.38435C6.63433 8.38435 8.50331 6.51517 8.50331 4.21757C8.50331 1.91996 6.63424 0.0507812 4.33698 0.0507812Z" fill="#233C8B"/>
</svg>
