<svg width="51" height="51" viewBox="0 0 51 51" fill="none" xmlns="http://www.w3.org/2000/svg">
<path d="M38.1342 48.4349C32.3249 48.4349 27.5985 43.2418 27.5985 36.8591C27.5985 30.476 32.3249 25.2829 38.1342 25.2829C43.9436 25.2829 48.6695 30.476 48.6695 36.8591C48.6695 43.2418 43.9436 48.4349 38.1342 48.4349ZM38.1342 22.7227C31.0289 22.7227 25.2684 29.0515 25.2684 36.8591C25.2684 44.6662 31.0289 50.9951 38.1342 50.9951C45.2396 50.9951 51 44.6662 51 36.8591C51 29.0515 45.2396 22.7227 38.1342 22.7227Z" fill="#233C8B"/>
<path d="M44.2303 37.0256L40.4018 35.9159C40.1946 35.322 39.8005 34.8374 39.2984 34.534V29.2423C39.2984 28.5354 38.7766 27.9622 38.1333 27.9622C37.49 27.9622 36.9682 28.5354 36.9682 29.2423V34.534C36.2148 34.9894 35.6979 35.8589 35.6979 36.8706C35.6979 38.3483 36.7883 39.5464 38.1333 39.5464C38.7387 39.5464 39.2853 39.2945 39.7112 38.8934L43.5066 39.9929C44.2523 40.2125 45.0192 39.7262 45.2187 38.9068C45.4186 38.0875 44.976 37.2448 44.2303 37.0256Z" fill="#233C8B"/>
<path d="M17.1016 45.5574C17.7698 45.5574 18.3131 44.9603 18.3131 44.2257V43.8752C20.3181 43.2782 21.7549 41.2343 21.7549 38.9412C21.7549 36.1582 19.6948 33.8642 17.1628 33.8279C16.207 33.814 15.394 33.0273 15.312 32.0377C15.2655 31.476 15.4303 30.9382 15.775 30.5236C16.1148 30.1148 16.5986 29.8795 17.1012 29.8795C17.875 29.8795 18.5604 30.4223 18.8055 31.2304C18.965 31.7566 19.3962 32.1098 19.8792 32.1098H19.9539C20.3426 32.1098 20.7106 31.9019 20.9374 31.554C21.1646 31.2067 21.2237 30.7773 21.1001 30.3752C20.66 28.9454 19.6279 27.8535 18.3131 27.4183V27.0458C18.3131 26.3116 17.7698 25.7146 17.1016 25.7146C16.4334 25.7146 15.89 26.3116 15.89 27.0458V27.4174C14.1098 28.0032 12.8815 29.8006 12.8815 31.8539C12.8815 34.3805 14.7527 36.4603 17.0518 36.4894C18.2695 36.5046 19.2697 37.5261 19.3293 38.8148C19.3603 39.4929 19.1433 40.1375 18.7174 40.6292C18.2915 41.1218 17.7176 41.3929 17.1012 41.3929C16.1148 41.3929 15.2337 40.6664 14.9579 39.6256C14.811 39.0716 14.3346 38.6852 13.8006 38.6852C13.4131 38.6852 13.0569 38.8807 12.8236 39.2222C12.5968 39.5548 12.5262 39.9716 12.6302 40.3661C13.0855 42.0832 14.3248 43.4117 15.89 43.8752V44.2257C15.89 44.9603 16.4334 45.5574 17.1016 45.5574Z" fill="#233C8B"/>
<path d="M27.0655 47.8503H9.28129C9.56276 47.1659 9.7088 46.4232 9.7088 45.6666V5.33384C9.7088 4.71843 9.94744 4.12857 10.3639 3.71486C10.7857 3.29533 11.3348 3.1008 11.9002 3.16131C12.9005 3.27067 13.6837 4.27648 13.6837 5.45127V8.65247C13.6837 9.52023 14.3266 10.2271 15.1172 10.2271H36.7119V18.6258C36.7119 19.4855 37.3487 20.1852 38.1564 20.1866H38.1585C38.5374 20.1866 38.894 20.0247 39.162 19.7307C39.4308 19.4353 39.5789 19.0431 39.5789 18.6263V10.2271H41.6185C44.1473 10.2271 46.2523 8.13029 46.4105 5.45351C46.495 4.02413 46.052 2.66244 45.1627 1.61942C44.2852 0.590756 43.0471 0 41.7666 0H11.6963C9.0198 0 6.84226 2.39261 6.84226 5.33384V40.7541L1.43348 40.7734C0.64331 40.7734 0 41.4798 0 42.3484V45.6666C0 48.6074 2.17755 51 4.8544 51H27.09C27.6787 51 28.198 50.6109 28.4138 50.0081C28.6279 49.4093 28.4896 48.7387 28.0372 48.2771C27.7696 48.0018 27.4241 47.8503 27.0655 47.8503Z" fill="#233C8B"/>
<path d="M33.9698 14.5166C33.9698 13.8093 33.4485 13.2365 32.8048 13.2365H13.6181C12.9747 13.2365 12.453 13.8093 12.453 14.5166C12.453 15.2234 12.9747 15.7967 13.6181 15.7967H32.8048C33.4485 15.7967 33.9698 15.2234 33.9698 14.5166Z" fill="#233C8B"/>
<path d="M24.4927 20.7213C24.4927 20.0144 23.971 19.4412 23.3277 19.4412H13.6181C12.9747 19.4412 12.453 20.0144 12.453 20.7213C12.453 21.4281 12.9747 22.0014 13.6181 22.0014H23.3277C23.971 22.0014 24.4927 21.4281 24.4927 20.7213Z" fill="#233C8B"/>
</svg>
