<svg width="689" height="761" viewBox="0 0 689 761" fill="none" xmlns="http://www.w3.org/2000/svg">
<g opacity="0.120444">
<path d="M606.401 190.541C606.401 190.541 617.314 186.932 618.329 191.83C619.344 196.727 613.761 201.11 617.568 203.945C621.375 206.781 628.481 199.821 631.78 206.265C635.079 212.71 625.181 218.381 631.526 220.701C637.871 223.021 644.723 217.866 646.753 225.084C648.783 232.302 646.246 236.942 646.246 236.942" stroke="#FFE600" stroke-width="2"/>
</g>
<g opacity="0.352997">
<path d="M172.194 41.7939C165.815 41.7939 160.643 47.047 160.643 53.5266C160.643 60.0063 165.815 65.2593 172.194 65.2593C178.573 65.2593 183.744 60.0063 183.744 53.5266C183.744 47.047 178.573 41.7939 172.194 41.7939Z" fill="#4586F2"/>
</g>
<g opacity="0.327181">
<path d="M643.023 454.183L648.607 474.805L660.938 467.905L643.023 454.183Z" fill="#FF0000"/>
</g>
<g opacity="0.301359">
<path d="M282.27 627.091C275.891 627.091 270.72 632.344 270.72 638.824C270.72 645.304 275.891 650.557 282.27 650.557C288.65 650.557 293.821 645.304 293.821 638.824C293.821 632.344 288.65 627.091 282.27 627.091Z" fill="#FF0000"/>
</g>
<g opacity="0.275531">
<path d="M393.226 0L398.809 20.6227L411.14 13.7223L393.226 0Z" fill="#FF0000"/>
</g>
<g opacity="0.249697">
<path d="M49.988 318.35V307.265L35.7761 310.358L36.7912 294.634L21.5641 298.242L22.0717 285.611L9.63625 290.251L11.4127 279.167L0.5 281.487" stroke="#4587F3" stroke-width="5"/>
</g>
<g opacity="0.223857">
<path d="M87.0889 638.448L92.6721 659.071L105.003 652.171L87.0889 638.448Z" fill="#4688F4"/>
</g>
<g opacity="0.198012">
<path d="M667.418 615.441L673.001 636.064L685.332 629.164L667.418 615.441Z" fill="#14BD2C"/>
</g>
<g opacity="0.172161">
<path d="M681.655 90.7568L663.89 97.4592L667.443 114.988L685.716 106.739L681.655 90.7568Z" fill="#4688F4"/>
</g>
<g opacity="0.146305">
<path d="M526.604 20.0391C520.225 20.0391 515.054 25.2921 515.054 31.7717C515.054 38.2514 520.225 43.5044 526.604 43.5044C532.983 43.5044 538.155 38.2514 538.155 31.7717C538.155 25.2921 532.983 20.0391 526.604 20.0391Z" fill="#FFE600"/>
</g>
<g opacity="0.120444">
<path d="M468.133 534.715C461.754 534.715 456.583 539.968 456.583 546.448C456.583 552.927 461.754 558.18 468.133 558.18C474.512 558.18 479.684 552.927 479.684 546.448C479.684 539.968 474.512 534.715 468.133 534.715Z" fill="#4587F3"/>
</g>
<g opacity="0.223857">
<path d="M265.378 432.468L247.614 439.17L251.167 456.699L269.439 448.45L265.378 432.468Z" fill="#14BE2C"/>
</g>
<g opacity="0.198012">
<path d="M221.229 236.873L203.464 243.575L207.017 261.104L225.289 252.855L221.229 236.873Z" fill="#14BE2C"/>
</g>
<g opacity="0.172161">
<path d="M670.692 337.935L676.276 358.557L688.607 351.657L670.692 337.935Z" fill="#FF0000"/>
</g>
<g opacity="0.146305">
<path d="M116.934 231.742L99.1692 238.444L102.722 255.973L120.995 247.724L116.934 231.742Z" fill="#FFE600"/>
</g>
<g opacity="0.120444">
<path d="M482.033 265.953C475.653 265.953 470.482 271.206 470.482 277.686C470.482 284.165 475.653 289.418 482.033 289.418C488.412 289.418 493.583 284.165 493.583 277.686C493.583 271.206 488.412 265.953 482.033 265.953Z" fill="#4587F3"/>
</g>
<g opacity="0.146305">
<path d="M50.9864 514.394L33.2214 521.096L36.7744 538.626L55.0469 530.377L50.9864 514.394Z" fill="#4688F4"/>
</g>
<g opacity="0.172161">
<path d="M489.82 179.041L495.404 199.664L507.734 192.763L489.82 179.041Z" fill="#FFE600"/>
</g>
<g opacity="0.198012">
<path d="M565.993 713.995C565.993 713.995 576.905 710.386 577.921 715.284C578.936 720.182 573.352 724.564 577.159 727.399C580.966 730.235 588.072 723.275 591.371 729.72C594.67 736.164 584.773 741.835 591.117 744.155C597.462 746.475 604.314 741.32 606.344 748.538C608.375 755.756 605.837 760.396 605.837 760.396" stroke="#F20A0A" stroke-width="2"/>
</g>
<g opacity="0.223857">
<path d="M62.4226 89.6484L68.0059 110.271L80.3368 103.371L62.4226 89.6484Z" fill="#FFE600"/>
</g>
</svg>
