<svg width="36" height="36" viewBox="0 0 36 36" fill="none" xmlns="http://www.w3.org/2000/svg">
<path d="M34.9446 4.81583C34.7244 4.66821 34.4476 4.69712 34.2539 4.88818C33.0618 6.06433 31.541 6.71208 29.9717 6.71208C29.5092 6.71208 29.0461 6.65608 28.5953 6.54558C28.3829 6.49353 28.1632 6.57788 28.0201 6.7661C27.877 6.95432 27.8329 7.2171 27.9048 7.45342L29.2804 11.9751C29.3671 12.2598 29.5985 12.4386 29.8463 12.4386C29.9091 12.4386 29.973 12.4271 30.0358 12.4029C32.715 11.3725 34.7063 8.74457 35.2327 5.54469C35.2803 5.25569 35.1648 4.96353 34.9446 4.81583Z" fill="#233C8B"/>
<path d="M33.7925 1.75009C33.5601 1.62973 33.2875 1.69212 33.1121 1.90544C32.033 3.21902 30.5791 4.04692 29.0184 4.23646C28.6218 4.28463 28.22 4.29166 27.8242 4.25707C27.6223 4.23977 27.4262 4.34086 27.303 4.52653C27.1797 4.71228 27.146 4.95726 27.2132 5.17799L28.5582 9.59861C28.6129 9.77812 28.7289 9.92375 28.8792 10.0015C28.9571 10.0417 29.0406 10.0619 29.1241 10.0619C29.202 10.0619 29.2798 10.0443 29.3531 10.0094C30.6693 9.38127 31.8127 8.34489 32.6599 7.01242C33.5124 5.67143 34.026 4.09035 34.1449 2.4401C34.1663 2.14694 34.0249 1.87029 33.7925 1.75009Z" fill="#233C8B"/>
<path d="M30.8162 4.48853C29.408 2.2009 27.3721 0.991699 24.9283 0.991699C20.6281 0.991699 17.1297 5.03346 17.1297 10.0015C17.1297 10.1885 17.1349 10.3765 17.145 10.5646C16.5347 10.651 15.9199 10.6946 15.3103 10.6946C10.3728 10.6946 5.75122 7.88442 2.94751 3.17729C2.69178 2.74821 2.11217 2.79828 1.91434 3.2659C0.721077 6.08685 0.721693 9.19511 1.91584 12.2547C2.13944 12.8276 2.38451 13.3475 2.62711 13.8059L1.29194 13.1117C0.862169 12.8883 0.375184 13.3243 0.45448 13.8605C1.05173 17.8977 3.06679 20.211 4.65195 21.4407C4.80959 21.5629 4.96592 21.6771 5.12 21.7836H4.21583C3.72638 21.7836 3.44105 22.457 3.74327 22.9035C5.23122 25.1024 7.13028 26.8932 9.28097 28.1351C6.71877 29.9809 3.80506 31.1055 0.790871 31.4034C0.548541 31.4273 0.33458 31.6294 0.266358 31.8992C0.196086 32.177 0.289395 32.4897 0.493444 32.658C3.10993 34.8159 7.0877 35.99 11.5351 35.99C12.6722 35.99 13.84 35.9132 15.0235 35.7566C18.9781 35.2332 23.1771 33.0458 26.2559 29.9056C28.2265 27.8956 29.7749 25.4979 30.858 22.7793C32.0981 19.6664 32.7268 16.1252 32.7268 12.254C32.7268 9.24819 32.0482 6.49034 30.8162 4.48853Z" fill="#233C8B"/>
<path d="M32.0531 7.33398C32.1604 8.13855 32.2174 8.97391 32.2174 9.83052C32.2174 13.7018 31.5886 17.2432 30.3485 20.3562C29.2655 23.075 27.7171 25.4728 25.7464 27.4828C22.6677 30.6231 18.4687 32.8105 14.5141 33.334C13.3305 33.4907 12.1627 33.5674 11.0256 33.5674C7.38561 33.5674 4.06073 32.7804 1.53879 31.3118C1.29031 31.3478 1.04135 31.3803 0.791359 31.4049C0.549029 31.4289 0.335068 31.631 0.266846 31.9008C0.196574 32.1786 0.289883 32.4913 0.493933 32.6596C3.11041 34.8176 7.08818 35.9917 11.5356 35.9917C12.6726 35.9917 13.8405 35.915 15.024 35.7584C18.9786 35.2349 23.1776 33.0474 26.2564 29.9071C28.227 27.8971 29.7754 25.4993 30.8585 22.7805C32.0986 19.6675 32.7273 16.1262 32.7273 12.2549C32.7273 10.495 32.4931 8.82187 32.0531 7.33398Z" fill="#233C8B"/>
<path d="M24.9283 5.15039C23.936 5.15039 23.1287 6.08312 23.1287 7.22964C23.1287 8.37616 23.936 9.30889 24.9283 9.30889C25.9207 9.30889 26.728 8.37616 26.728 7.22964C26.728 6.08312 25.9207 5.15039 24.9283 5.15039Z" fill="#233C8B"/>
</svg>
