<svg width="51" height="51" viewBox="0 0 51 51" fill="none" xmlns="http://www.w3.org/2000/svg">
<path d="M46.9624 12.3637C46.9624 13.0247 46.4199 13.5578 45.7509 13.5578H20.0507C19.3817 13.5578 18.8388 13.0247 18.8388 12.3637V5.18364C18.8388 4.52264 19.3817 3.9867 20.0507 3.9867H45.7509C46.4199 3.9867 46.9624 4.52264 46.9624 5.18364V12.3637ZM46.9624 23.2828C46.9624 23.9438 46.4199 24.4797 45.7509 24.4797H40.9767C40.3073 24.4797 39.7648 23.9438 39.7648 23.2828V18.5608C39.7648 17.8998 40.3073 17.3634 40.9767 17.3634H45.7509C46.4199 17.3634 46.9624 17.8998 46.9624 18.5608V23.2828ZM46.9624 33.551C46.9624 34.2124 46.4199 34.7483 45.7509 34.7483H40.9767C40.3073 34.7483 39.7648 34.2124 39.7648 33.551V28.8294C39.7648 28.168 40.3073 27.6345 40.9767 27.6345H45.7509C46.4199 27.6345 46.9624 28.168 46.9624 28.8294V33.551ZM36.4993 23.2828C36.4993 23.9438 35.9569 24.4797 35.2878 24.4797H30.5137C29.8447 24.4797 29.3018 23.9438 29.3018 23.2828V18.5608C29.3018 17.8998 29.8447 17.3634 30.5137 17.3634H35.2878C35.9569 17.3634 36.4993 17.8998 36.4993 18.5608V23.2828ZM36.4993 33.551C36.4993 34.2124 35.9569 34.7483 35.2878 34.7483H30.5137C29.8447 34.7483 29.3018 34.2124 29.3018 33.551V28.8294C29.3018 28.168 29.8447 27.6345 30.5137 27.6345H35.2878C35.9569 27.6345 36.4993 28.168 36.4993 28.8294V33.551ZM26.0417 23.2828C26.0417 23.9438 25.4988 24.4797 24.8302 24.4797H20.0507C19.3817 24.4797 18.8388 23.9438 18.8388 23.2828V18.5608C18.8388 17.8998 19.3817 17.3634 20.0507 17.3634H24.8302C25.4988 17.3634 26.0417 17.8998 26.0417 18.5608V23.2828ZM47.7711 0H18.0325C16.2493 0 14.8036 1.42797 14.8036 3.19009V30.5399C14.8036 31.4202 15.3995 32.188 16.258 32.4247C16.2756 32.4296 16.2933 32.4344 16.311 32.4393C17.5784 32.7929 18.8392 31.8611 18.8388 30.5602V28.8294C18.8388 28.168 19.3817 27.6345 20.0507 27.6345H24.8302C25.4988 27.6345 26.0417 28.1708 26.0417 28.8318V33.551C26.0417 34.2124 25.4988 34.7483 24.8302 34.7483H21.5922C20.7317 34.7483 20.0256 35.4207 19.9944 36.2701C19.9615 37.1645 20.6852 37.9072 21.591 37.9067C27.2918 37.9047 45.7509 37.9027 45.7509 37.9027C46.4199 37.9027 46.9624 38.439 46.9624 39.1V43.8216C46.9624 44.4826 46.4199 45.019 45.7509 45.019H44.3499C43.6566 45.019 43.0217 45.3897 42.6802 45.9853C42.6703 46.0024 42.6604 46.0194 42.6506 46.0365C41.917 47.2882 42.8565 48.855 44.3207 48.855H47.7711C49.5547 48.855 51 47.4267 51 45.665V3.19009C51 1.42797 49.5547 0 47.7711 0Z" fill="#233C8B"/>
<path d="M1.22195 47.3364H2.5851V50.9999H1.22195C0.675781 50.9999 0.230713 50.5635 0.230713 50.0243V48.3121C0.230713 47.7729 0.675781 47.3364 1.22195 47.3364Z" fill="#233C8B"/>
<path d="M7.08499 47.3364H4.89868V50.9999H7.08499V47.3364Z" fill="#233C8B"/>
<path d="M16.6768 48.3121V50.0243C16.6768 50.5635 16.2318 50.9999 15.686 50.9999H8.71655V47.3364H15.686C16.2318 47.3364 16.6768 47.7729 16.6768 48.3121Z" fill="#233C8B"/>
<path d="M0.991233 35.5334H2.35438V39.197H0.991233C0.445069 39.197 0 38.7605 0 38.2213V36.5091C0 35.9699 0.445069 35.5334 0.991233 35.5334Z" fill="#233C8B"/>
<path d="M6.85468 35.5334H4.66797V39.197H6.85468V35.5334Z" fill="#233C8B"/>
<path d="M16.4478 36.5091V38.2213C16.4478 38.7605 16.0028 39.197 15.457 39.197H8.48755V35.5334H15.457C16.0028 35.5334 16.4478 35.9699 16.4478 36.5091Z" fill="#233C8B"/>
<path d="M4.03892 41.4285H5.40248V45.092H4.03892C3.49316 45.092 3.0481 44.6555 3.0481 44.1163V42.4041C3.0481 41.8649 3.49316 41.4285 4.03892 41.4285Z" fill="#233C8B"/>
<path d="M9.90302 41.4285H7.71631V45.092H9.90302V41.4285Z" fill="#233C8B"/>
<path d="M19.494 42.4041V44.1163C19.494 44.6555 19.049 45.092 18.5032 45.092H11.5342V41.4285H18.5032C19.049 41.4285 19.494 41.8649 19.494 42.4041Z" fill="#233C8B"/>
<path d="M21.4126 47.3364H22.7758V50.9999H21.4126C20.8665 50.9999 20.4214 50.5635 20.4214 50.0243V48.3121C20.4214 47.7729 20.8665 47.3364 21.4126 47.3364Z" fill="#233C8B"/>
<path d="M27.2754 47.3364H25.0891V50.9999H27.2754V47.3364Z" fill="#233C8B"/>
<path d="M36.8673 48.3121V50.0243C36.8673 50.5635 36.4222 50.9999 35.876 50.9999H28.907V47.3364H35.876C36.4222 47.3364 36.8673 47.7729 36.8673 48.3121Z" fill="#233C8B"/>
<path d="M24.2332 41.4285H25.5963V45.092H24.2332C23.687 45.092 23.2419 44.6555 23.2419 44.1163V42.4041C23.2419 41.8649 23.687 41.4285 24.2332 41.4285Z" fill="#233C8B"/>
<path d="M30.0962 41.4285H27.9099V45.092H30.0962V41.4285Z" fill="#233C8B"/>
<path d="M39.6898 42.4041V44.1163C39.6898 44.6555 39.2447 45.092 38.6989 45.092H31.7295V41.4285H38.6989C39.2447 41.4285 39.6898 41.8649 39.6898 42.4041Z" fill="#233C8B"/>
</svg>
