<svg width="51" height="51" viewBox="0 0 51 51" fill="none" xmlns="http://www.w3.org/2000/svg">
<g clip-path="url(#clip0_1268_61)">
<path d="M20.2004 41.9866C19.9655 42.467 19.609 42.8836 19.1693 43.1888C18.9151 43.3661 18.633 43.5047 18.3298 43.5989V43.6906C18.3298 44.1969 17.9198 44.6069 17.4139 44.6069C16.9117 44.6069 16.5021 44.1969 16.5021 43.6906V43.5989C16.2245 43.5133 15.9616 43.3895 15.7227 43.2316C15.2785 42.9433 14.9112 42.5439 14.6677 42.0701C14.5715 41.8908 14.4946 41.7028 14.437 41.5042C14.358 41.2307 14.4115 40.9444 14.5846 40.7141C14.7594 40.4813 15.0284 40.3468 15.3213 40.3468C15.4298 40.3468 15.5327 40.3661 15.631 40.4003C15.8979 40.4961 16.1134 40.7116 16.1969 40.9917C16.2734 41.2566 16.4313 41.4828 16.6407 41.6428C16.8587 41.8114 17.1276 41.9097 17.4139 41.9097C17.7257 41.9097 18.0181 41.7987 18.2488 41.5959C18.2788 41.5704 18.3064 41.5445 18.334 41.5149C18.5774 41.2582 18.7012 40.9255 18.6823 40.5751C18.6585 40.0819 18.3405 39.6632 17.8943 39.4773L17.8922 39.4757C17.7339 39.4091 17.5632 39.3729 17.3818 39.3708C17.2321 39.3688 17.0849 39.356 16.9422 39.3321C16.7369 39.296 16.5362 39.2384 16.3483 39.1594C15.7782 38.9246 15.3019 38.5059 14.9881 37.9827C14.736 37.5599 14.5929 37.0688 14.5929 36.5457C14.5929 36.2039 14.6529 35.8753 14.7681 35.5676C14.9581 35.0486 15.2999 34.5982 15.7461 34.2716C15.9723 34.1051 16.2265 33.9706 16.5021 33.8764V33.7694C16.5021 33.2656 16.9117 32.8556 17.4139 32.8556C17.9198 32.8556 18.3298 33.2656 18.3298 33.7694V33.8789C18.6268 33.9788 18.902 34.1285 19.1434 34.3165C19.5793 34.6517 19.91 35.1086 20.0893 35.6466C20.0914 35.6511 20.0939 35.6573 20.0939 35.6618C20.1815 35.9328 20.1387 36.2211 19.9697 36.456C19.8376 36.6398 19.6431 36.7678 19.4276 36.8167C19.3614 36.8319 19.2927 36.8406 19.2244 36.8406H19.18C18.8082 36.8406 18.4791 36.595 18.3578 36.2318C18.3237 36.1253 18.2702 36.0291 18.206 35.9435C18.0201 35.7021 17.7322 35.5528 17.4139 35.5528C17.1383 35.5528 16.8714 35.6704 16.6835 35.8753C16.6814 35.8773 16.6789 35.8814 16.6773 35.8839C16.4893 36.0908 16.3997 36.3598 16.4252 36.6398C16.4679 37.0857 16.8328 37.4489 17.2922 37.5217H17.2942C17.3477 37.5323 17.3987 37.5385 17.4546 37.5385C17.5163 37.5385 17.5764 37.543 17.6381 37.5471C18.0584 37.5772 18.4582 37.6944 18.8143 37.8758C18.881 37.9103 18.9427 37.9445 19.0048 37.9827C19.5769 38.3286 20.0318 38.8538 20.2859 39.4773C20.4332 39.8364 20.5146 40.2292 20.5146 40.6392C20.5146 41.1155 20.4011 41.5745 20.2004 41.9866ZM24.711 39.4773H24.5687C24.1624 39.4773 23.8428 39.1438 23.8432 38.7378V38.7226C23.8428 38.3163 24.1624 37.9827 24.5687 37.9827H24.711C25.1647 37.9827 25.5139 37.5694 25.4246 37.1243C25.0697 35.3558 24.1414 33.7945 22.8401 32.6433C22.497 32.3398 21.9607 32.4291 21.7312 32.8259L21.6609 32.9473C21.4602 33.2944 21.0172 33.4124 20.6709 33.2109C20.6582 33.2039 20.6454 33.1961 20.6327 33.1891C20.2851 32.9901 20.1663 32.5463 20.3666 32.1996L20.4377 32.0766C20.6664 31.6801 20.4764 31.1705 20.042 31.0249C19.2302 30.753 18.3615 30.605 17.4587 30.605C16.5547 30.605 15.6861 30.753 14.875 31.0245C14.4407 31.1701 14.2507 31.6797 14.4798 32.0762L14.5505 32.1991C14.7508 32.5459 14.6319 32.9896 14.2844 33.1887L14.2445 33.2117C13.8986 33.4129 13.4552 33.2948 13.2545 32.9481L13.1842 32.8264C12.9547 32.4295 12.418 32.3402 12.0749 32.6442C10.7757 33.7949 9.8474 35.3562 9.49245 37.1243C9.4032 37.5694 9.75239 37.9827 10.2065 37.9827H10.3467C10.7526 37.9827 11.0722 38.3163 11.0718 38.7226V38.7378C11.0722 39.1438 10.7526 39.4773 10.3467 39.4773H10.2065C9.75239 39.4773 9.4032 39.8911 9.49245 40.3361C9.8474 42.1059 10.7757 43.6671 12.0766 44.8175C12.42 45.1206 12.9568 45.0314 13.1858 44.6345L13.2549 44.5148C13.4552 44.1681 13.8986 44.0497 14.2449 44.2512C14.2577 44.2586 14.2708 44.266 14.284 44.2738C14.6315 44.4729 14.7508 44.9166 14.5501 45.2634L14.4802 45.3839C14.2511 45.7804 14.4411 46.2904 14.8754 46.436C15.6861 46.7078 16.5547 46.8555 17.4587 46.8555C18.3611 46.8555 19.2298 46.7074 20.0408 46.4355C20.4747 46.2899 20.6647 45.7808 20.4361 45.3843L20.3661 45.263C20.1663 44.9158 20.2851 44.4725 20.6323 44.2738C20.6454 44.2664 20.6578 44.259 20.6705 44.2516C21.0168 44.0501 21.4602 44.1685 21.6605 44.5152L21.7296 44.6349C21.9587 45.0314 22.4954 45.1211 22.8384 44.8179C24.141 43.668 25.0701 42.1063 25.425 40.3361C25.5139 39.8911 25.1647 39.4773 24.711 39.4773Z" fill="#233C8B"/>
<path d="M37.828 42.7501V41.9406C37.828 41.3809 37.943 40.8687 38.1728 40.404C38.4077 39.9343 38.7475 39.5595 39.1922 39.2797C39.642 38.9948 40.1866 38.8524 40.8263 38.8524C41.4759 38.8524 42.0206 38.9948 42.4603 39.2797C42.9001 39.5595 43.2324 39.9343 43.4572 40.404C43.6821 40.8687 43.7945 41.3809 43.7945 41.9406V42.7501C43.7945 43.3098 43.6796 43.8245 43.4497 44.2942C43.2249 44.7589 42.8901 45.1337 42.4453 45.4185C42.0056 45.6984 41.4659 45.8383 40.8263 45.8383C40.1767 45.8383 39.6295 45.6984 39.1847 45.4185C38.74 45.1337 38.4027 44.7589 38.1728 44.2942C37.943 43.8245 37.828 43.3098 37.828 42.7501ZM39.3571 41.9406V42.7501C39.3571 43.2148 39.4671 43.6321 39.6869 44.0019C39.9068 44.3667 40.2866 44.5491 40.8263 44.5491C41.351 44.5491 41.7207 44.3667 41.9356 44.0019C42.1555 43.6321 42.2654 43.2148 42.2654 42.7501V41.9406C42.2654 41.4759 42.1605 41.0611 41.9506 40.6963C41.7407 40.3265 41.366 40.1416 40.8263 40.1416C40.3016 40.1416 39.9243 40.3265 39.6944 40.6963C39.4696 41.0611 39.3571 41.4759 39.3571 41.9406ZM30.1825 33.9653V33.1558C30.1825 32.5961 30.2975 32.0839 30.5273 31.6192C30.7622 31.1494 31.102 30.7747 31.5467 30.4948C31.9965 30.21 32.5411 30.0676 33.1808 30.0676C33.8304 30.0676 34.3751 30.21 34.8148 30.4948C35.2545 30.7747 35.5869 31.1494 35.8117 31.6192C36.0366 32.0839 36.149 32.5961 36.149 33.1558V33.9653C36.149 34.525 36.0341 35.0396 35.8042 35.5094C35.5794 35.9741 35.2446 36.3489 34.7998 36.6337C34.3601 36.9135 33.8204 37.0535 33.1808 37.0535C32.5312 37.0535 31.984 36.9135 31.5392 36.6337C31.0945 36.3489 30.7572 35.9741 30.5273 35.5094C30.2975 35.0396 30.1825 34.525 30.1825 33.9653ZM31.7116 33.1558V33.9653C31.7116 34.43 31.8216 34.8473 32.0414 35.217C32.2613 35.5818 32.6411 35.7642 33.1808 35.7642C33.7055 35.7642 34.0752 35.5818 34.2901 35.217C34.51 34.8473 34.6199 34.43 34.6199 33.9653V33.1558C34.6199 32.691 34.515 32.2763 34.3051 31.9115C34.0952 31.5417 33.7205 31.3568 33.1808 31.3568C32.6561 31.3568 32.2788 31.5417 32.0489 31.9115C31.8241 32.2763 31.7116 32.691 31.7116 33.1558ZM30.7522 45.6284L41.306 30.2775H43.015L32.4612 45.6284H30.7522Z" fill="#233C8B"/>
<path d="M50.8536 23.2034C50.8042 22.9542 50.759 22.7029 50.6965 22.4578C48.9567 15.5789 44.7303 10.6698 38.5836 7.35026C33.6538 4.6888 28.3486 3.74406 22.7806 4.23227C17.674 4.68016 13.0215 6.37221 8.9032 9.43673C4.89353 12.4206 2.02643 16.2526 0.525629 21.0545C0.314226 21.7294 0.169863 22.4261 0 23.087C3.75714 20.9566 7.54183 20.9072 11.3997 21.9988C11.3997 21.9988 14.4133 22.9324 14.9903 23.312C15.1079 23.2392 15.2268 23.1685 15.3457 23.099C18.5323 21.2441 21.9279 20.6423 25.4646 20.6748C28.0697 20.6991 30.7004 21.0717 33.1204 22.0716C34.0668 22.4623 34.9473 22.9888 35.8296 23.4996C39.3313 21.7927 43.7851 20.8871 47.5888 22.0078C48.1526 22.174 48.7025 22.3846 49.2413 22.6194C49.4474 22.7095 50.8532 23.2113 50.877 23.3976C50.8729 23.3667 50.8696 23.2841 50.8536 23.2034Z" fill="#233C8B"/>
</g>
<defs>
<clipPath id="clip0_1268_61">
<rect width="51" height="51" fill="white"/>
</clipPath>
</defs>
</svg>
